<svg width="1080" height="920" viewBox="0 0 1080 920" fill="none" xmlns="http://www.w3.org/2000/svg">
<g clip-path="url(#clip0_26_2)">
<rect width="1080" height="920" rx="16" fill="#797979" fill-opacity="0.1"/>
<mask id="mask0_26_2" style="mask-type:alpha" maskUnits="userSpaceOnUse" x="523" y="-125" width="672" height="391">
<path d="M523.5 201.5L784 -125L1055 -117.5L1195 -65L1039 112L826.5 266L523.5 201.5Z" fill="#D9D9D9"/>
</mask>
<g mask="url(#mask0_26_2)">
<mask id="mask1_26_2" style="mask-type:alpha" maskUnits="userSpaceOnUse" x="57" y="-91" width="1104" height="1209">
<path d="M277.5 750.5C132 831.5 57 1036.5 57 1036.5L406 1117.5C406 1117.5 384.236 955.592 417.5 861C474.105 700.036 662.572 722.059 746.5 573.5C820.559 442.411 755.401 328.067 829.5 197C913.827 47.8431 1160.5 -91 1160.5 -91H863C863 -91 666.196 24.7343 614.5 149.5C553.847 295.882 725.581 413.171 652 553.5C575.26 699.853 421.886 670.12 277.5 750.5Z" fill="#FFDFDF"/>
</mask>
<g mask="url(#mask1_26_2)">
<path d="M277.5 750.5C132 831.5 57 1036.5 57 1036.5L406 1117.5C406 1117.5 384.236 955.592 417.5 861C474.105 700.036 662.572 722.059 746.5 573.5C820.559 442.411 755.401 328.067 829.5 197C913.827 47.8431 1160.5 -91 1160.5 -91H863C863 -91 666.196 24.7343 614.5 149.5C553.847 295.882 725.581 413.171 652 553.5C575.26 699.853 421.886 670.12 277.5 750.5Z" fill="#FFDFDF"/>
<path d="M306.5 759.5C161 840.5 86 1045.5 86 1045.5L435 1126.5C435 1126.5 413.236 964.592 446.5 870C503.105 709.036 691.572 731.059 775.5 582.5C849.559 451.411 784.401 337.067 858.5 206C942.827 56.8431 1189.5 -82 1189.5 -82H892C892 -82 695.196 33.7343 643.5 158.5C582.847 304.882 754.581 422.171 681 562.5C604.26 708.853 450.886 679.12 306.5 759.5Z" fill="#ACD2ED"/>
<path d="M335.5 775.5C190 856.5 115 1061.5 115 1061.5L464 1142.5C464 1142.5 442.236 980.592 475.5 886C532.105 725.036 720.572 747.059 804.5 598.5C878.559 467.411 813.401 353.067 887.5 222C971.827 72.8431 1218.5 -66 1218.5 -66L951.5 -92C951.5 -92 724.196 49.7343 672.5 174.5C611.847 320.882 783.581 438.171 710 578.5C633.26 724.853 479.886 695.12 335.5 775.5Z" fill="#D5ACED"/>
<path d="M362.5 787.5C217 868.5 142 1073.5 142 1073.5L491 1154.5C491 1154.5 469.236 992.592 502.5 898C559.105 737.036 747.572 759.059 831.5 610.5C905.559 479.411 840.401 365.067 914.5 234C998.827 84.8431 1245.5 -54 1245.5 -54L991 -93C991 -93 751.196 61.7343 699.5 186.5C638.847 332.882 810.581 450.171 737 590.5C660.26 736.853 506.886 707.12 362.5 787.5Z" fill="#76E7BE"/>
<path d="M392.5 800.5C247 881.5 172 1086.5 172 1086.5L521 1167.5C521 1167.5 499.236 1005.59 532.5 911C589.105 750.036 777.572 772.059 861.5 623.5C935.559 492.411 870.401 378.067 944.5 247C1028.83 97.8431 1290.5 -59 1290.5 -59L1016 -79.5C1016 -79.5 781.196 74.7343 729.5 199.5C668.847 345.882 840.581 463.171 767 603.5C690.26 749.853 536.886 720.12 392.5 800.5Z" fill="#F7EC8A"/>
<path d="M412.5 819.5C267 900.5 192 1105.5 192 1105.5L541 1186.5C541 1186.5 519.236 1024.59 552.5 930C609.105 769.036 797.572 791.059 881.5 642.5C955.559 511.411 890.401 397.067 964.5 266C1048.83 116.843 1323.5 -53 1323.5 -53L1080 -99.5C1080 -99.5 801.196 93.7343 749.5 218.5C688.847 364.882 860.581 482.171 787 622.5C710.26 768.853 556.886 739.12 412.5 819.5Z" fill="#FFA95A"/>
<path d="M442.5 826.5C297 907.5 222 1112.5 222 1112.5L571 1193.5C571 1193.5 549.236 1031.59 582.5 937C639.105 776.036 827.572 798.059 911.5 649.5C985.559 518.411 920.401 404.067 994.5 273C1078.83 123.843 1353.5 -46 1353.5 -46L1092 -83.5C1092 -83.5 831.196 100.734 779.5 225.5C718.847 371.882 890.581 489.171 817 629.5C740.26 775.853 586.886 746.12 442.5 826.5Z" fill="#FF6E5A"/>
<path d="M483.5 826.5C338 907.5 263 1112.5 263 1112.5L612 1193.5C612 1193.5 590.236 1031.59 623.5 937C680.105 776.036 868.572 798.059 952.5 649.5C1026.56 518.411 961.401 404.067 1035.5 273C1119.83 123.843 1394.5 -46 1394.5 -46L1120 -66.5C1120 -66.5 872.196 100.734 820.5 225.5C759.847 371.882 931.581 489.171 858 629.5C781.26 775.853 627.886 746.12 483.5 826.5Z" fill="#FFDFDF"/>
</g>
</g>
<path d="M601.5 208.5C601.5 208.5 596.5 137.5 686.5 47C776.5 -43.5 839.5 -77 839.5 -77" stroke="white" stroke-width="2"/>
<path d="M805.5 251.5C805.5 251.5 826.5 175.5 912 94.5C997.5 13.5 1083.5 -44 1083.5 -44" stroke="white" stroke-width="2"/>
<path d="M896.297 799.276L155.508 641.549C149.963 640.37 146 635.482 146 629.814V151.995C146 131.663 164.746 116.489 184.663 120.708L925.462 277.515C931.017 278.685 935 283.583 935 289.26V767.999C935 788.351 916.224 803.525 896.297 799.286V799.276Z" fill="black" stroke="black" stroke-width="2" stroke-miterlimit="10"/>
<path d="M934 331L909 349V305.876C909 301.587 905.973 297.894 901.767 297.052L147.5 146C147.5 146 147.438 138 157 129C166.563 120 178.5 120 178.5 120L926.87 278.985C931.027 279.868 934 283.539 934 287.789V331Z" fill="#272727"/>
<path d="M894.51 798.735L155.51 641.931C149.97 640.751 146 635.864 146 630.198V152.997C146 145.382 153.02 139.685 160.48 141.264L899.48 297.11C905.03 298.279 909 303.176 909 308.843V787.002C909 794.628 901.97 800.314 894.51 798.735Z" stroke="white" stroke-width="2" stroke-miterlimit="10"/>
<path d="M894.51 798.735L155.51 641.931C149.97 640.751 146 635.864 146 630.198V152.997C146 145.382 153.02 139.685 160.48 141.264L899.48 297.11C905.03 298.279 909 303.176 909 308.843V787.002C909 794.628 901.97 800.314 894.51 798.735Z" stroke="white" stroke-width="2" stroke-miterlimit="10"/>
<path d="M909 348.99L146 187.157V152.992C146 145.38 153.02 139.686 160.48 141.264L899.48 297.044C905.03 298.212 909 303.107 909 308.771V349V348.99Z" stroke="white" stroke-width="2" stroke-miterlimit="10"/>
<path d="M909 348.99L146 187.157V152.992C146 145.38 153.02 139.686 160.48 141.264L899.48 297.044C905.03 298.212 909 303.107 909 308.771V349V348.99Z" fill="#272727"/>
<path d="M909 349V308.771C909 303.107 905.03 298.212 899.48 297.044L160.48 141.264C153.02 139.686 146 145.38 146 152.992V187.157L909 348.99V349ZM909 349L935.5 330" stroke="white" stroke-width="2" stroke-miterlimit="10"/>
<path d="M906 301.5L934 281.5" stroke="white" stroke-width="2"/>
<path d="M896.297 799.276L155.508 641.549C149.963 640.37 146 635.482 146 629.814V151.995C146 131.663 164.746 116.489 184.663 120.708L925.462 277.515C931.017 278.685 935 283.583 935 289.26V767.999C935 788.351 916.224 803.525 896.297 799.286V799.276Z" stroke="white" stroke-width="2" stroke-miterlimit="10"/>
<path d="M169 182C176.18 182 182 175.732 182 168C182 160.268 176.18 154 169 154C161.82 154 156 160.268 156 168C156 175.732 161.82 182 169 182Z" fill="black"/>
<path d="M167 180C173.075 180 178 174.627 178 168C178 161.373 173.075 156 167 156C160.925 156 156 161.373 156 168C156 174.627 160.925 180 167 180Z" fill="#FF6E5A"/>
<path d="M203 189C210.18 189 216 182.732 216 175C216 167.268 210.18 161 203 161C195.82 161 190 167.268 190 175C190 182.732 195.82 189 203 189Z" fill="black"/>
<path d="M201 187C207.075 187 212 181.627 212 175C212 168.373 207.075 163 201 163C194.925 163 190 168.373 190 175C190 181.627 194.925 187 201 187Z" fill="#F7EC89"/>
<path d="M239 196C246.18 196 252 189.732 252 182C252 174.268 246.18 168 239 168C231.82 168 226 174.268 226 182C226 189.732 231.82 196 239 196Z" fill="black"/>
<path d="M237 194C243.075 194 248 188.627 248 182C248 175.373 243.075 170 237 170C230.925 170 226 175.373 226 182C226 188.627 230.925 194 237 194Z" fill="#56D3A7"/>
<path d="M302.515 390.652L472 423.524V442L294 407.12V389L302.515 390.652Z" stroke="white" stroke-width="2" stroke-miterlimit="10" stroke-linejoin="round"/>
<path d="M484 411.545L314.515 378.653L306 377L294 388.65M484 411.545V430.034L472 442M484 411.545L472 423.552" stroke="white" stroke-width="2" stroke-miterlimit="10" stroke-linecap="round" stroke-linejoin="round"/>
<path fill-rule="evenodd" clip-rule="evenodd" d="M280 352L228.472 401L217 387.198L253.807 352L217 316.802L228.472 303L280 352Z" stroke="white" stroke-width="2" stroke-linejoin="round"/>
<path d="M300 352L248.112 401H228M300 352L248.112 303L228 303M300 352H279.357" stroke="white" stroke-width="2" stroke-linejoin="round"/>
<path d="M286 473.5L294.5 468.5M218.5 430C218.5 430 220.5 428 228.175 423.086C231.372 421.18 235.333 419.613 237.405 418.845C237.726 418.716 238.058 418.596 238.39 418.486C238.651 418.386 238.812 418.346 238.812 418.346C244.503 416.56 251.27 416.61 258.549 418.147C270.284 420.616 292.239 426.793 298 455.5M207 504L220.202 496.42L239.225 500.431C239.788 516.785 249.008 526.513 263.476 529.556C265.647 530.013 266.968 529.991 269 530M295.5 540.5C293.5 544 288.119 548.383 284.299 550.818C278.111 554.767 271.875 556.366 269 557M240.793 445.048C240.378 446.555 240.168 448.278 240.18 450.225C240.361 479.091 302.369 463.589 303 516" stroke="white" stroke-width="2" stroke-linecap="round" stroke-linejoin="round"/>
<path d="M244.973 426.151C257.701 428.854 283.175 437.689 285.713 473.66L266.935 469.671C266.279 460.107 260.397 448.579 245.929 445.508C234.346 443.044 226.743 446.734 226.813 458.222C226.992 487.113 288.489 472.543 288.997 525.097C289.305 556.959 267.124 560.559 249.411 556.79C219.449 550.407 207.358 530.353 207 504.375L225.827 508.384C226.395 524.728 235.52 534.442 249.829 537.493C260.417 539.747 270.279 537.174 270.159 523.681C269.901 493.136 208.98 506.698 208.722 456.258C208.592 429.003 224.842 421.873 244.973 426.151Z" stroke="white" stroke-width="2" stroke-linecap="round" stroke-linejoin="round"/>
<path d="M372.076 491.967L385.206 483.762C382.656 447.712 357.057 438.867 344.268 436.149C337.028 434.61 330.298 434.56 324.639 436.349C324.639 436.349 324.479 436.389 324.219 436.489C323.889 436.598 323.559 436.718 323.239 436.848C321.179 437.618 317.239 439.187 314.059 441.096C309.959 443.555 305 447.5 305 447.5M293 522L306.129 514.554L325.049 518.572C325.609 534.953 334.778 544.697 349.167 547.745C351.373 548.214 352.94 548.502 355 548.5M326.627 463.063C326.209 464.58 325.997 466.317 326.009 468.281C326.166 493.656 374.442 486.883 386.5 520M353 575.5C355.871 574.749 364.299 572.629 369.877 569.043C373.676 566.605 376 564.956 378.576 562.397C382.5 558.5 385.25 554.128 387 549.5" stroke="white" stroke-width="2" stroke-linecap="round" stroke-linejoin="round"/>
<path d="M330.963 444.141C343.693 446.843 369.174 455.68 371.712 491.653L352.93 487.664C352.273 478.099 346.39 466.57 331.918 463.499C320.332 461.035 312.728 464.725 312.797 476.214C312.977 505.107 374.489 490.536 374.997 543.095C375.305 574.959 353.119 578.56 335.402 574.79C305.452 568.417 293.358 548.361 293 522.38L311.832 526.39C312.399 542.736 321.527 552.45 335.84 555.501C346.43 557.755 356.294 555.182 356.175 541.689C355.916 511.141 294.981 524.704 294.722 474.26C294.583 447.013 310.837 439.872 330.973 444.151L330.963 444.141Z" stroke="white" stroke-width="2" stroke-linecap="round" stroke-linejoin="round"/>
<path d="M485.128 469.318L467.758 465.61L455 473.5M485.128 469.318L487 592.805L473.923 601L456.424 597.272M485.128 469.318L472 477.5M416.984 502.526L416.446 454.698M416.984 502.526L454.5 510M416.984 502.526L404.5 510M416.446 454.698L399.077 451L386 459M416.446 454.698L403.5 462.5M387.265 582.542L404.754 586.27L417.841 578.065L417.33 533.005" stroke="white" stroke-width="2" stroke-linecap="round" stroke-linejoin="round"/>
<path d="M386.01 459.01L403.395 462.712L403.933 510.603L454.741 522V473.649L472.126 477.352L474 601L456.486 597.268L455.688 540.952L404.142 529.965L404.77 586.241L387.266 582.508L386 459L386.01 459.01Z" stroke="white" stroke-width="2" stroke-linecap="round" stroke-linejoin="round"/>
<g style="mix-blend-mode:screen">
<path d="M757.696 582.445C753.801 575.922 749.789 569.134 745.545 561.997C746.475 567.207 749.673 577.565 741.475 587.357C740.487 588.567 740.08 588.774 738.917 589.469C741.01 597.557 738.627 600.601 737.29 600.601C737.29 600.601 736.941 600.524 735.371 600.711C735.894 602.614 736.418 604.517 736.883 606.407L724.151 601.493L715.197 603.494C715.197 602.898 715.197 602.362 715.197 601.766C715.197 601.766 715.197 601.647 715.197 601.588V601.111C716.069 592.789 714.36 589.971 710 584C709.418 584.645 708.139 586.285 707.5 586.5C703.662 588.446 697.74 587.733 690.838 585.455C691.826 583.768 692.873 582.095 693.977 580.375C694.617 579.326 695.906 577.245 695.5 576.5C694.627 577.438 692.616 576.986 690 577C681.86 577.037 678.941 576.097 674 577.5C672.604 579.691 671.604 581.578 670.5 583L646.595 564.069C648.339 562.61 649.255 561.078 651 559.5C647.744 553.714 645.616 550.986 640.5 543C646.023 542.083 652.235 542.036 655.432 542.091C653.456 538.972 653.63 539.309 653.107 538.12C652.06 535.625 652.642 533.193 652.351 531.223C652.642 528.846 654.444 528.174 653.456 525.691C652.99 525.707 651.828 525.627 649.909 525.677L651.886 515.754L653.804 517.252C653.921 516.087 656.246 502.072 656.362 500.967C645.2 495.687 631.538 491.698 620.433 488.516C609.097 485.341 597.702 483.047 587.702 481.361C589.504 481.404 591.423 481.473 593.516 481.462C600.085 481.433 603.748 482.247 610.841 483.466C617.934 485.399 630.782 488.91 630.898 488.936C631.073 488.796 634.503 486.461 635.2 485.901C648.456 488.847 648.921 489.069 654.735 490.719C653.165 487.154 654.095 486.229 639.909 477.657C640.549 475.357 641.421 472.276 641.654 471.434C640.316 470.005 639.037 468.59 637.758 467.174L652.583 466.954L660.781 460.141C666.943 475.803 670.548 485.18 672.118 489.698C678.222 485.516 689.036 482.618 699.733 483.685C698.628 473.613 697.582 464.447 696.652 456.022C716.069 459.742 720.372 468.678 720.372 468.678C719.5 470.747 718.569 472.804 717.697 474.933C718.453 475.994 727.697 489.423 730.022 492.799C728.627 493.441 727.174 494.131 725.488 494.888C726.011 495.6 733.627 505.928 734.208 506.712C738.917 505.019 743.917 503.271 749.033 501.43C752.405 504.205 754.963 511.92 754.556 513.914C750.719 513.597 748.51 513.463 748.394 513.438C749.324 515.252 748.626 513.906 752.289 520.973C751.94 522.206 751.184 525.254 748.859 527.12C750.661 529.664 752.987 530.598 754.905 532.096C754.847 533.274 754.673 536.988 754.615 537.332C754.789 537.371 771.067 545.038 790.543 554.13C783.567 550.972 776.474 547.728 768.742 544.164C769.149 555.093 767.767 564.149 763 572.5C764.337 573.571 764.72 574.441 766 575.5L757.521 582.406L757.696 582.445Z" fill="white"/>
</g>
<path d="M477.5 321C526.393 356.998 539.507 363.749 561.308 383.602C578.517 364.854 597.004 367.95 606.771 369.406C571.191 366.562 570.029 380.418 566.25 386.248C574.215 378.668 578.517 381.828 582.063 382.318C575.726 383.709 572.703 384.228 568.401 390.181C586.54 407.254 599.911 422.137 617.352 441.14C563.052 385.181 576.914 398.3 477.441 320.987L477.5 321ZM760.836 473.084C759.498 473.978 742.871 485.589 731.127 490.662L720.488 475.136C750.545 406.12 746.663 413.061 775.499 343C746.024 407.678 749.557 401.553 723.337 462.131C716.244 460.912 698.047 453.712 695.257 453.39C695.257 453.39 695.431 454.917 695.257 455.772C715.999 460.5 719.999 468.5 719.999 468.5C719.127 470.569 717.871 472.871 716.999 475C717.813 476.193 729.79 492.39 730.604 493.583C741.418 489.018 752.754 481.115 761.94 474.64C781.358 460.731 797.811 443.007 805.718 434.818C797.462 442.632 778.858 460.712 760.777 473.072L760.836 473.084ZM588.499 481.5C590.825 481.6 592.528 481.541 595.26 481.552V481.314C577.354 477.454 562.413 477.052 560.901 476.954C548.111 476.375 540.03 474.401 530.844 473.193C500.322 469.209 489.999 464.5 489.999 464.5V464.738C489.999 464.738 507.5 472 541.999 476C561.01 477.187 567.006 479.978 581.075 481.08C592.935 483.299 607.353 486.324 620.259 490.145C621.829 490.613 641.886 496.44 654.095 502.131L652.584 515.135L651.188 514.527L648.63 525.87L649.677 526.698L651.886 515.873L653.805 517.372C653.921 516.207 656.383 501.606 656.499 500.5C645.337 495.22 631.604 491.182 620.499 488C609.163 484.826 597.999 483 587.999 481.314L588.499 481.5ZM707.465 585.398C703.221 587.551 697.059 585.646 688.687 585.394C678.571 605.122 669.676 651.266 666.13 674.538C672.06 645.661 680.083 605.577 689.443 587.289C696.303 587.622 702.64 589.805 708.221 588.007L708.919 587.686C709.442 587.504 709.849 587.178 710.198 586.839C712.64 590.716 713.337 594.207 713.047 598.609L712.872 600.297V600.714L712.814 600.999V601.237V602.13C712.058 620.186 713.163 678.141 713.57 698.123C697.291 694.506 671.885 692.255 661.13 703.741C672.467 692.801 698.28 695.976 715.256 700.284C715.081 636.879 714.791 617.339 715.372 601.805C715.372 601.805 715.372 601.686 715.372 601.627V601.15C716.244 592.828 714.558 588.939 710.198 582.968C709.616 583.613 708.221 585.149 707.582 585.364L707.465 585.398ZM878.971 582C885.191 557.118 879.61 524.671 879.61 524.671L877.168 524.486C883.563 544.905 880.25 571.683 878.971 582ZM877.575 591.219C878.564 590.128 879.087 585.897 878.971 583.906C877.692 587.254 873.913 589.928 870.483 591.191C870.483 591.191 879.087 595.366 880.366 595.769C881.761 592.685 881.238 588.697 880.366 586.181C880.25 588.359 879.319 589.998 877.575 591.219ZM652.999 467.162L661.828 459.301L651.712 465.57L635.782 465.603L636.363 467.162L652.642 467.5L652.999 467.162Z" fill="url(#paint0_radial_26_2)"/>
<path d="M639.096 471.759C594.156 423.419 607.994 434.224 496.952 347.907C606.948 428.929 597.761 423.684 641.829 471.533C641.596 472.374 640.724 475.516 640.085 477.756C654.27 486.328 653.282 487.24 654.91 490.817C649.096 489.168 648.631 488.946 635.376 486C634.678 486.5 631.248 488.894 631.073 489.034C630.841 488.982 606.656 482.357 606.423 482.306L630.783 488.195C631.422 487.682 634.852 485.169 635.027 485.029C647.468 487.436 646.945 487.38 649.852 488.204C646.77 482.16 670.027 510.244 527.997 431.038C541.999 451.5 527.997 437.5 547.763 469.329C576.889 475.147 566.134 472.995 595.61 478.95C556.599 472.306 580.61 476.391 547.065 470.604C522.066 429.434 543.869 451.002 517.067 422.474C593.867 464.852 604.853 457.42 627.004 470.084L637.992 476.159L639.213 471.785L639.096 471.759ZM748.999 502C752.371 504.774 754.406 511.506 753.999 513.5C750.162 513.183 748.115 513.026 747.999 513C748.929 514.815 747.824 513.409 751.999 521C751.65 522.233 750.825 525.135 748.499 527C750.301 529.545 752.581 530.502 754.499 532C754.441 533.178 754.057 537.156 753.999 537.5C754.406 537.71 856.588 585.006 856.995 585.216V584.978L755.429 537.096C755.545 535.991 756.011 532.282 756.069 531.878C754.325 530.24 752.871 528.964 751.011 527.241C751.592 525.702 753.046 521.559 753.278 521.134C753.046 520.606 752.115 517.659 751.476 515.79C768.045 517.209 864.876 525.293 896.328 526.268V526.029C874.178 523.132 865.89 522.813 805.253 517.974C801.532 506.248 787.637 501.85 779.847 497.082C799.904 509.876 801.125 514.793 801.009 517.686C800.834 517.647 800.718 517.621 800.544 517.642C798.218 513.254 793.509 511.314 790.777 509.992C794.265 512.673 796.3 514.793 796.881 517.364C780.37 516.077 766.65 514.993 758.104 514.345C756.069 511.808 753.046 504.287 749.79 501.36C768.51 494.622 789.033 487.093 805.892 480.477C782.463 488.134 756.883 497.338 734.442 505.454L727.174 495.62C741.069 489 746.883 484.813 755.255 478.217C744.616 485.56 740.405 487.442 724.999 494.5C725.522 495.212 733.628 506.107 734.209 506.891C738.918 505.198 743.918 503.45 749.034 501.609L748.999 502ZM851.588 459.781C855.367 458.179 858.623 456.938 861.588 455.929C860.018 459.273 857.286 469.385 866.82 489.192C864.902 489.123 857.518 489.09 838.914 464.945C843.391 473.385 858.739 490.672 867.809 490.365C868.274 484.036 863.332 464.297 870.657 453.001C878.913 450.548 876.831 451.75 889.738 445.149L889.622 444.885C873.227 448.567 869.669 451.531 868.332 452.068C857.46 456.917 849.961 458.348 841.879 461.019C814.904 469.972 803.858 475.855 803.858 475.855L803.974 476.12C803.974 476.12 824.206 471.503 851.647 459.675L851.588 459.781ZM851.971 760.683C818.775 695.24 827.229 712.184 808.741 677.524C806.764 677.085 804.613 677.321 801.241 678.359C796.358 679.775 771.94 684.652 752.174 676.626C756.011 708.09 754.755 708.042 755.859 739.674C753.534 700.267 753.86 701.657 750.429 675.881C746.941 649.676 742.697 628.424 737.349 607.821L724.558 602.715L713.919 603.746L724.268 601.4L736.511 606.204C735.987 604.301 735.522 602.411 734.999 600.508C736.627 600.393 737.407 600.508 737.407 600.508C738.686 600.495 740.534 597.575 738.499 589.5C739.604 588.733 740.453 588.137 741.499 587C749.696 577.208 745.929 565.209 744.999 560C749.243 567.137 753.662 574.99 757.499 581.5L766.499 574.5L768.626 576.656L761.185 587.985C777.87 616.17 792.346 641.363 811.648 678.408C828.682 711.137 822.554 699.057 852.029 760.518L851.971 760.683ZM804.904 670.358C789.73 642.211 773.917 614.458 749.383 572.915C749.209 580.976 745.43 587.998 741.593 590.897C742.639 596.073 742.232 602.176 738.279 602.906C744.732 626.911 749.092 651.583 752.174 676.567C760.894 679.338 793.8 684.626 804.962 670.431L804.904 670.358ZM653.499 538C654.022 539.188 654.022 539.381 655.999 542.5C625.709 541.784 534.975 574.383 505.848 585.003C553.869 565.36 621.713 540.733 651.247 539.613C649.329 535.673 650.317 533.213 649.91 530.8C649.968 530.038 650.201 528.958 650.317 528.389C649.677 528.306 648.166 528.268 644.561 528.36C637.875 528.542 634.62 528.772 609.911 530.011L612.237 544.642L606.365 530.175C597.586 530.607 586.424 531.223 571.948 531.937C571.018 536.375 571.076 542.761 573.052 548.501C571.25 545.48 567.878 538.536 567.529 536.136C567.471 539.22 568.285 542.498 570.145 545.949C567.587 542.939 564.215 537.782 562.239 532.4C542.995 533.364 548.636 531.502 517.649 532.954C598.983 526.908 575.378 529.602 633.457 526.31C646.247 525.579 652.336 525.48 653.499 525.5C654.487 527.983 652.79 529.123 652.499 531.5C652.79 533.53 652.394 535.491 653.441 537.987L653.499 538ZM779.963 497.048C779.963 497.048 779.44 496.693 779.149 496.51C779.44 496.693 779.673 496.864 779.963 497.048Z" fill="url(#paint1_radial_26_2)"/>
<path d="M764.964 571.971C855.832 646.061 773.585 579.299 895.5 677.5C778.643 586.855 858.332 650.548 762.115 572.648C766.824 564.344 768.394 554.417 768.045 543.5C825 568.5 752.249 537.613 895.5 602.5C863.291 588.613 866.5 590 863.565 588.939C862.576 589.493 862.169 590.534 862.46 591.731C862.867 599.563 849.321 615.254 845.426 617.485C852.751 610.06 859.844 595.08 858.681 586.782C826.066 572.506 794.73 558.575 770.836 547.667C770.37 548.159 769.847 548.698 769.789 549.459C769.789 550.412 771.359 552.19 771.243 553.177C771.068 554.508 769.673 554.317 769.208 555.047C769.789 555.831 769.615 558.77 769.266 560.003C768.975 561.13 768.684 562.196 767.754 563.062C767.522 563.903 768.336 565.871 768.045 566.64C767.696 567.635 765.196 568.33 764.789 569.311C764.44 570.127 764.789 571.038 765.022 571.864L764.964 571.971ZM679.711 319.602C679.711 319.602 679.711 319.781 679.711 319.9C679.711 319.543 679.711 319.602 679.711 319.602ZM685.548 375.18C681.944 379.143 664.967 375.37 660.723 375.916C660.723 375.916 680.723 378.157 686.246 381.409C688.571 402.83 691.478 429.502 695.024 462.688C695.722 468.918 696.129 472.701 696.827 479.407L695.257 479.475C691.478 479.052 688.164 479.447 685.316 480.184C685.432 480.21 685.548 480.116 685.664 480.083C684.676 465.272 669.037 397.894 657.584 376.112C646.131 354.33 619.446 343.398 611.423 330.835C611.423 330.835 630.259 361.642 641.073 375.301C637.41 370.319 619.213 341.321 619.213 341.321C625.26 346.179 643.05 360.435 646.538 363.711C654.735 371.37 660.549 385.347 661.828 392.063C659.968 386.885 645.898 380.84 641.538 375.941C652.061 388.761 658.107 382.065 669.386 415.599C680.781 449.696 683.048 480.871 683.048 480.871C678.979 482.349 675.955 484.476 673.921 485.87L672.874 486.888C672.118 484.696 669.851 476.986 664.212 462.63C650.898 428.822 643.068 407.668 601.5 306C661.439 460.288 666.616 476.372 671.5 490.5C677.604 486.318 689.802 483.433 700.5 484.5C690.849 398.501 691.629 404.14 679.595 319.815C679.827 321.534 681.048 332.406 685.432 375.094L685.548 375.18ZM695.78 575.714C696.187 576.459 694.676 579.399 694.036 580.448C676.827 606.878 680.522 610.203 657.5 732C684.65 552.518 684.734 596.009 691.478 579.641C691.478 579.641 692.35 578.584 692.583 578.993C692.059 577.805 690.722 578.64 690.722 578.699C690.141 578.451 687.757 580.363 687.118 580.34C683.63 580.16 679.502 578.469 675.839 579.382C659.677 605.211 681.478 554.49 615.202 707.232C627.992 674.163 637.41 650.468 644.561 633.357C637.41 623.073 617.12 600.399 612.411 594.112C602.586 602.827 594.156 610.483 586.831 617.252C592.005 624.953 612.411 644.496 615.144 645.58C603.516 640.375 588.226 624.828 583.75 620.141C531.775 669.04 550.766 645.101 523.5 707.232C555.417 627.195 524.798 664.631 648.805 558.724C646.829 555.128 645.084 552.001 640.201 544.365C565.204 565.457 543.984 571.044 510.729 579.973C538.286 571.624 565.785 563.204 640.899 541.542C647.177 551.275 648.34 553.439 651.887 559.706C650.084 561.271 648.34 562.73 646.654 564.261L670.432 582.349C671.537 580.927 672.7 579.339 674.037 577.135C678.92 575.66 681.885 576.378 690.025 576.4C692.641 576.386 694.908 576.771 695.78 575.833V575.714ZM646.48 564.222C643.573 566.733 640.724 569.197 637.992 571.567L664.328 590.7C665.956 588.084 667.235 586.284 668.456 584.65L646.48 564.163V564.222ZM647.817 625.445C649.968 620.384 651.887 616.046 653.572 612.192C648.689 608.606 631.19 595.486 623.922 583.925C625.492 586.656 647.526 604.476 655.375 608.185C659.328 599.654 662.061 594.425 664.27 590.807L635.259 573.938C627.643 580.583 620.667 586.715 614.272 592.381C632.527 619.486 645.608 624.715 647.875 625.458L647.817 625.445Z" fill="url(#paint2_radial_26_2)"/>
<path d="M879.494 594.087C878.156 593.492 875.831 592.379 873.564 591.34C874.726 590.705 875.947 589.904 876.994 588.945C876.819 589.502 876.645 589.94 876.47 590.199L878.331 592.399C878.912 591.992 879.436 591.573 879.842 591.067C879.842 592.08 879.726 593.126 879.436 594.133L879.494 594.087ZM719.325 467.85L719.441 467.697L721.593 468.354C721.593 468.354 719.616 464.461 713.57 460.794C716.709 461.849 719.732 462.759 722 463.263C722.465 463.367 722.93 463.47 723.395 463.573L723.976 463.702C723.162 465.546 722.29 467.497 721.476 469.46L719.325 467.969V467.85ZM567.412 389.127C565.784 387.575 564.098 386.068 562.412 384.503C564.505 382.228 566.657 380.264 568.808 378.598C567.877 380 567.18 381.453 566.54 382.68C566.075 383.649 565.61 384.558 565.145 385.288L567.238 387.302C570.435 384.26 572.935 383.029 575.086 382.674C572.354 383.734 570.087 385.434 567.412 389.127Z" fill="white"/>
<path d="M796.939 677.879C800.601 676.37 803.741 674.209 806.008 671.318L806.299 670.966C807.229 672.721 808.159 674.476 809.089 676.232L808.799 676.167C806.59 675.676 804.322 675.946 800.718 676.992C799.962 677.241 798.683 677.552 796.997 677.832L796.939 677.879ZM789.032 639.019C780.079 623.093 770.021 605.672 757.522 584.432L766.358 577.343L759.498 587.849L759.963 588.667C770.079 605.804 779.265 621.602 788.974 639.065L789.032 639.019ZM570.203 540.006C569.505 538.362 568.982 536.995 568.866 536.195L566.308 535.805C566.308 536.699 566.308 537.533 566.424 538.452C565.319 536.479 564.273 534.341 563.459 532.195L563.343 531.931C565.843 531.771 568.284 531.599 570.668 531.474C570.203 533.753 569.97 536.798 570.145 540.112L570.203 540.006ZM623.689 545.936C635.898 542.992 645.665 541.172 651.537 540.928C645.026 541.387 635.317 543.16 623.689 545.936ZM748.161 570.202C748.161 569.547 748.045 568.926 747.987 568.317C748.045 568.449 748.161 568.594 748.22 568.667V570.156L748.161 570.202ZM607.295 529.191C607.702 529.162 608.109 529.134 608.574 529.118L609.388 534.301L607.295 529.191ZM651.77 527.699L651.886 527.13L651.712 527.091C651.712 527.091 652.235 527.147 652.409 527.127C652.409 527.484 652.177 527.79 651.944 528.274L651.77 527.699ZM755.952 514.522C756.01 514.118 756.01 513.642 755.952 513.033C756.417 513.792 756.824 514.418 757.231 514.985C756.766 514.941 756.301 514.897 755.894 514.866V514.569L755.952 514.522ZM651.246 488.455L650.898 487.722C650.374 486.713 649.793 485.809 648.688 484.73C651.246 486.609 652.177 487.768 652.7 488.837C652.177 488.721 651.712 488.618 651.246 488.455ZM798.276 517.257C798.16 516.636 797.927 516.048 797.694 515.52C798.392 516.211 799.09 517.081 799.555 518.018L799.787 518.486C799.38 518.455 798.974 518.425 798.508 518.381L798.276 517.257ZM802.404 517.936C802.404 515.733 801.764 513.149 798.101 509.297C800.776 511.678 802.985 514.552 804.09 518.073L804.322 518.839C803.683 518.816 802.985 518.72 802.346 518.697V517.923L802.404 517.936ZM866.297 485.205C859.029 468.403 861.355 459.748 862.808 456.736L863.215 455.874C864.959 455.189 866.762 454.458 868.68 453.634C864.087 462.261 865.25 474.55 866.064 482.83C866.122 483.677 866.238 484.477 866.297 485.264V485.205ZM828.507 467.278C829.961 466.767 831.414 466.197 832.984 465.653C831.472 466.21 829.961 466.767 828.507 467.278Z" fill="white"/>
<path d="M601.191 634.796C593.866 628.761 587.18 621.975 584.564 619.19L583.692 618.222C584.157 617.73 584.68 617.31 585.203 616.831L585.843 617.807C588.517 621.796 595.029 628.722 601.249 634.868L601.191 634.796ZM645.492 632.67C642.759 628.728 638.108 622.989 633.167 617.067C640.957 624.218 646.19 626.274 647.643 626.775L648.515 626.969C647.643 628.979 646.771 631.048 645.841 633.164L645.492 632.67ZM654.154 611.19C651.015 608.884 643.341 603.129 636.248 596.371C643.166 601.839 651.015 607.514 655.085 609.49L656.131 609.961C655.84 610.611 655.55 611.261 655.259 611.971L654.213 611.202L654.154 611.19ZM614.33 594.657C613.923 594.15 613.575 593.715 613.284 593.353L612.354 592.074C612.354 592.074 612.47 591.981 612.47 591.921L613.168 592.969C613.516 593.523 613.923 594.09 614.272 594.644L614.33 594.657ZM670.258 584.752L663.573 578.502L670.84 584.048C670.84 584.048 671.77 582.825 671.944 582.626C670.549 584.638 669.619 585.801 668.863 586.646C669.096 586.34 670.258 584.812 670.258 584.812V584.752ZM634.969 572.443C635.318 572.164 635.609 571.871 635.957 571.591L645.724 578.705L634.969 572.443ZM677.235 577.727C679.444 577.384 681.479 577.419 684.502 577.495C685.839 577.554 687.351 577.592 689.095 577.563C688.746 577.724 688.339 577.991 687.874 578.245C687.525 578.465 687.002 578.765 686.769 578.892C685.665 578.826 684.444 578.614 683.165 578.33C681.246 577.903 679.212 577.57 677.293 577.68L677.235 577.727ZM693.513 578.366C693.513 578.366 693.165 577.872 692.99 577.654C693.281 577.719 693.572 577.664 693.862 577.67C693.746 577.882 693.63 578.154 693.513 578.366ZM856.821 602.329C859.147 596.771 860.484 591.172 859.903 586.934V586.576C860.775 587.008 861.705 587.394 862.635 587.839C861.356 588.567 860.775 590.046 861.123 591.672C861.24 594.437 859.379 598.371 856.879 602.342L856.821 602.329ZM677.293 485.428C678.979 484.314 681.13 483.125 683.746 482.217L682.467 479.61L684.386 481.109C684.386 481.109 684.211 478.688 683.746 474.654C684.095 476.816 684.27 478.641 684.386 479.977L684.851 479.187L685.839 481.551C688.921 480.746 692.118 480.504 695.374 480.87L695.49 480.896L698.164 480.716C698.164 481.193 698.281 481.695 698.339 482.244C690.432 481.678 682.932 483.168 677.293 485.428ZM668.224 408.552C664.387 398.349 661.073 392.788 657.933 389.113C659.329 390.257 660.433 391.396 660.724 392.353L662.991 392.202C664.735 397.176 666.538 402.757 668.224 408.552ZM686.653 380.249C685.432 379.561 683.688 378.875 681.246 378.214C683.456 377.99 685.316 377.45 686.421 376.386C686.595 377.735 686.769 379.084 686.886 380.42L686.653 380.249ZM618.691 340.311C618.691 340.311 619.156 340.713 619.446 340.956L619.214 341.142C619.214 341.142 618.865 340.588 618.691 340.311Z" fill="white"/>
<mask id="mask2_26_2" style="mask-type:alpha" maskUnits="userSpaceOnUse" x="6" y="456" width="785" height="573">
<path fill-rule="evenodd" clip-rule="evenodd" d="M757.624 582.325C757.648 582.365 757.672 582.405 757.696 582.445L757.522 582.407L757.624 582.325ZM651.749 559.373C648.032 562.665 644.5 566 644.5 566C644.5 566 547.5 654 363.5 683C174.009 788.273 90.0508 806.456 90.0508 806.456L6 1029H429.756L454.771 953.517L687.411 748.76C687.411 748.76 673.369 688.046 692.5 664.5C712.553 639.819 723.089 613.353 726.859 602.538L736.883 606.407C736.418 604.519 735.896 602.618 735.373 600.716L735.372 600.711C736.941 600.524 737.29 600.601 737.29 600.601C738.627 600.601 741.011 597.557 738.918 589.469L739.098 589.361C740.126 588.749 740.541 588.502 741.476 587.357C747.399 580.283 747.373 572.913 746.552 567.402C746.388 566.301 747.786 565.769 748.354 566.725C749.02 567.848 749.681 568.962 750.338 570.068C752.828 574.265 755.248 578.344 757.624 582.325L765.777 575.784C764.498 574.726 763.219 573.667 761.882 572.596C766.649 564.246 769.149 555.094 768.742 544.164C776.475 547.729 783.567 550.972 790.544 554.131C781.328 549.828 772.828 545.845 766.412 542.838C759.268 539.49 754.707 537.353 754.615 537.332C754.666 537.032 754.805 534.169 754.878 532.66C754.889 532.439 754.898 532.247 754.906 532.096C754.333 531.649 753.725 531.253 753.105 530.848C751.646 529.898 750.124 528.905 748.859 527.12C751.069 525.347 751.861 522.507 752.234 521.171C752.254 521.101 752.272 521.035 752.29 520.974C749.626 515.835 749.268 515.144 748.914 514.452C748.781 514.193 748.648 513.933 748.394 513.438C748.441 513.448 748.822 513.476 749.508 513.525C750.538 513.6 752.254 513.724 754.557 513.914C754.964 511.92 752.406 504.205 749.034 501.431C746.387 502.383 743.772 503.31 741.211 504.218C738.822 505.065 736.482 505.895 734.209 506.712C733.627 505.928 726.011 495.6 725.488 494.888C726.627 494.377 727.659 493.897 728.639 493.441C729.111 493.221 729.57 493.008 730.023 492.799C729.655 492.265 729.114 491.48 728.461 490.531C724.986 485.485 718.334 475.826 717.698 474.933C718.207 473.689 718.736 472.471 719.262 471.26C719.637 470.397 720.009 469.539 720.372 468.678C720.372 468.678 716.07 459.742 696.652 456.022C697.055 459.675 697.481 463.468 697.923 467.413C698.501 472.567 699.108 477.981 699.733 483.686C689.036 482.619 678.223 485.516 672.118 489.698C670.548 485.181 666.944 475.804 660.781 460.141L652.584 466.955L637.759 467.174L637.763 467.178C639.041 468.593 640.318 470.007 641.654 471.434C641.554 471.795 641.337 472.568 641.071 473.515C640.716 474.776 640.275 476.344 639.91 477.657C652.573 485.309 653.191 486.867 654.294 489.649C654.427 489.984 654.567 490.336 654.735 490.719C654.172 490.559 653.659 490.413 653.18 490.276C648.711 489.001 647.172 488.562 635.201 485.902C634.736 486.275 633.056 487.437 631.936 488.212C631.376 488.599 630.957 488.889 630.899 488.936C630.827 488.92 625.932 487.584 620.524 486.108C617.146 485.186 613.568 484.209 610.841 483.466C609.941 483.311 609.096 483.163 608.294 483.023C602.772 482.054 599.252 481.437 593.516 481.462C591.865 481.471 590.323 481.43 588.86 481.391C588.469 481.381 588.083 481.371 587.703 481.361C597.702 483.048 609.097 485.342 620.434 488.516C631.538 491.698 645.201 495.687 656.363 500.967C656.307 501.5 655.738 505.03 655.15 508.676C654.518 512.596 653.865 516.649 653.805 517.253L651.886 515.754L649.91 525.678C651.164 525.645 652.096 525.668 652.721 525.683C653.051 525.691 653.295 525.697 653.456 525.692C654.058 527.204 653.625 528.044 653.128 529.007C652.81 529.625 652.465 530.294 652.351 531.223C652.453 531.909 652.448 532.65 652.443 533.431C652.435 534.894 652.425 536.494 653.107 538.121C653.26 538.468 653.354 538.686 653.459 538.897C653.713 539.408 654.034 539.885 655.433 542.092C652.235 542.036 647.759 542.53 642.235 543.447C646.853 550.655 648.298 553.227 650.929 557.914C651.189 558.378 651.461 558.862 651.749 559.373Z" fill="white"/>
</mask>
<g mask="url(#mask2_26_2)">
<mask id="mask3_26_2" style="mask-type:alpha" maskUnits="userSpaceOnUse" x="57" y="-92" width="1104" height="1210">
<path d="M277.5 750.5C132 831.5 57 1036.5 57 1036.5L406 1117.5C406 1117.5 384.236 955.591 417.5 861C474.105 700.036 662.572 722.058 746.5 573.5C820.559 442.411 755.401 328.066 829.5 197C913.827 47.843 1160.5 -91.0001 1160.5 -91.0001H863C863 -91.0001 666.196 24.7342 614.5 149.5C553.847 295.882 725.581 413.171 652 553.5C575.26 699.853 421.886 670.12 277.5 750.5Z" fill="#FFDFDF"/>
</mask>
<g mask="url(#mask3_26_2)">
<path d="M277.5 750.5C132 831.5 57 1036.5 57 1036.5L406 1117.5C406 1117.5 384.236 955.591 417.5 861C474.105 700.036 662.572 722.058 746.5 573.5C820.559 442.411 755.401 328.066 829.5 197C913.827 47.843 1160.5 -91.0001 1160.5 -91.0001H863C863 -91.0001 666.196 24.7342 614.5 149.5C553.847 295.882 725.581 413.171 652 553.5C575.26 699.853 421.886 670.12 277.5 750.5Z" fill="#FFDFDF"/>
<path d="M306.5 759.5C161 840.5 86 1045.5 86 1045.5L435 1126.5C435 1126.5 413.236 964.591 446.5 870C503.105 709.036 691.572 731.058 775.5 582.5C849.559 451.411 784.401 337.066 858.5 206C942.827 56.843 1189.5 -82.0001 1189.5 -82.0001H892C892 -82.0001 695.196 33.7342 643.5 158.5C582.847 304.882 754.581 422.171 681 562.5C604.26 708.853 450.886 679.12 306.5 759.5Z" fill="#ACD2ED"/>
<path d="M335.5 775.5C190 856.5 115 1061.5 115 1061.5L464 1142.5C464 1142.5 442.236 980.591 475.5 886C532.105 725.036 720.572 747.058 804.5 598.5C878.559 467.411 813.401 353.066 887.5 222C971.827 72.843 1218.5 -66.0001 1218.5 -66.0001H921C921 -66.0001 724.196 49.7342 672.5 174.5C611.847 320.882 783.581 438.171 710 578.5C633.26 724.853 479.886 695.12 335.5 775.5Z" fill="#D5ACED"/>
<path d="M362.5 787.5C217 868.5 142 1073.5 142 1073.5L491 1154.5C491 1154.5 469.236 992.591 502.5 898C559.105 737.036 747.572 759.058 831.5 610.5C905.559 479.411 840.401 365.066 914.5 234C998.827 84.843 1245.5 -54.0001 1245.5 -54.0001L971 -74.5001C971 -74.5001 751.196 61.7342 699.5 186.5C638.847 332.882 810.581 450.171 737 590.5C660.26 736.853 506.886 707.12 362.5 787.5Z" fill="#76E7BE"/>
<path d="M392.5 800.5C247 881.5 172 1086.5 172 1086.5L521 1167.5C521 1167.5 499.236 1005.59 532.5 911C589.105 750.036 777.572 772.058 861.5 623.5C935.559 492.411 870.401 378.066 944.5 247C1028.83 97.843 1290.5 -59.0001 1290.5 -59.0001L1016 -79.5001C1016 -79.5001 781.196 74.7342 729.5 199.5C668.847 345.882 840.581 463.171 767 603.5C690.26 749.853 536.886 720.12 392.5 800.5Z" fill="#F7EC8A"/>
<path d="M412.5 819.5C267 900.5 192 1105.5 192 1105.5L541 1186.5C541 1186.5 519.236 1024.59 552.5 930C609.105 769.036 797.572 791.058 881.5 642.5C955.559 511.411 890.401 397.066 964.5 266C1048.83 116.843 1323.5 -53.0001 1323.5 -53.0001L1049 -73.5001C1049 -73.5001 801.196 93.7342 749.5 218.5C688.847 364.882 860.581 482.171 787 622.5C710.26 768.853 556.886 739.12 412.5 819.5Z" fill="#FFA95A"/>
<path d="M442.5 826.5C297 907.5 222 1112.5 222 1112.5L571 1193.5C571 1193.5 549.236 1031.59 582.5 937C639.105 776.036 827.572 798.058 911.5 649.5C985.559 518.411 920.401 404.066 994.5 273C1078.83 123.843 1353.5 -46.0001 1353.5 -46.0001L1079 -66.5001C1079 -66.5001 831.196 100.734 779.5 225.5C718.847 371.882 890.581 489.171 817 629.5C740.26 775.853 586.886 746.12 442.5 826.5Z" fill="#FF6E5A"/>
<path d="M483.5 826.5C338 907.5 263 1112.5 263 1112.5L612 1193.5C612 1193.5 590.236 1031.59 623.5 937C680.105 776.036 868.572 798.058 952.5 649.5C1026.56 518.411 961.401 404.066 1035.5 273C1119.83 123.843 1394.5 -46.0001 1394.5 -46.0001L1120 -66.5001C1120 -66.5001 872.196 100.734 820.5 225.5C759.847 371.882 931.581 489.171 858 629.5C781.26 775.853 627.886 746.12 483.5 826.5Z" fill="#B83F3F"/>
</g>
</g>
<path d="M70 1005C70 1005 93.5 952.5 129.5 896.5C165.5 840.5 213 797.5 213 797.5C213 797.5 261 755.5 310.5 733.5C360 711.5 492 676 492 676C492 676 564.974 660 616.5 605C668.026 550 670.5 486 670.5 486" stroke="white" stroke-width="2"/>
<path d="M399 1005C399 1005 400 924.5 412 876C424 827.5 458.5 791 458.5 791C458.5 791 479 765.5 516 742.5C553 719.5 604.5 696 604.5 696C604.5 696 655.5 674 706.5 625C757.5 576 755 532 755 532" stroke="white" stroke-width="2"/>
</g>
<defs>
<radialGradient id="paint0_radial_26_2" cx="0" cy="0" r="1" gradientUnits="userSpaceOnUse" gradientTransform="translate(671.711 489.488) rotate(12.5288) scale(216.008 210.864)">
<stop offset="0.33" stop-color="white"/>
<stop offset="0.67" stop-color="#94B5B4"/>
<stop offset="1" stop-color="#616B73"/>
</radialGradient>
<radialGradient id="paint1_radial_26_2" cx="0" cy="0" r="1" gradientUnits="userSpaceOnUse" gradientTransform="translate(712.117 574.997) rotate(12.5288) scale(240.247 234.526)">
<stop offset="0.48" stop-color="white"/>
<stop offset="0.53" stop-color="#E2EBEB"/>
<stop offset="0.6" stop-color="#C0D3D3"/>
<stop offset="0.66" stop-color="#A7C2C1"/>
<stop offset="0.72" stop-color="#99B8B7"/>
<stop offset="0.77" stop-color="#94B5B4"/>
<stop offset="0.98" stop-color="#616B73"/>
</radialGradient>
<radialGradient id="paint2_radial_26_2" cx="0" cy="0" r="1" gradientUnits="userSpaceOnUse" gradientTransform="translate(748.976 542.094) rotate(12.5288) scale(244.714 238.886)">
<stop offset="0.33" stop-color="white"/>
<stop offset="0.67" stop-color="#94B5B4"/>
<stop offset="1" stop-color="#616B73"/>
</radialGradient>
<clipPath id="clip0_26_2">
<rect width="1080" height="920" rx="16" fill="white"/>
</clipPath>
</defs>
</svg>
