<?xml version="1.0" encoding="us-ascii" standalone="no"?><svg xmlns="http://www.w3.org/2000/svg" xmlns:xlink="http://www.w3.org/1999/xlink" contentStyleType="text/css" height="533px" preserveAspectRatio="none" style="width:990px;height:533px;background:#FFFFFF;" version="1.1" viewBox="0 0 990 533" width="990px" zoomAndPan="magnify"><defs/><g><!--cluster ListenMode--><g id="cluster_ListenMode"><path d="M19.5,7 L693.5,7 A12.5,12.5 0 0 1 706,19.5 L706,28.4883 L7,28.4883 L7,19.5 A12.5,12.5 0 0 1 19.5,7 " fill="#F1F1F1" style="stroke:#F1F1F1;stroke-width:1.0;"/><rect fill="none" height="376" rx="12.5" ry="12.5" style="stroke:#181818;stroke-width:0.5;" width="699" x="7" y="7"/><line style="stroke:#181818;stroke-width:0.5;" x1="7" x2="706" y1="28.4883" y2="28.4883"/><text fill="#000000" font-family="sans-serif" font-size="14" lengthAdjust="spacing" textLength="78" x="317.5" y="24.5352">ListenMode</text></g><!--cluster SpyMode--><g id="cluster_SpyMode"><path d="M742.5,297 L964.5,297 A12.5,12.5 0 0 1 977,309.5 L977,318.4883 L730,318.4883 L730,309.5 A12.5,12.5 0 0 1 742.5,297 " fill="#F1F1F1" style="stroke:#F1F1F1;stroke-width:1.0;"/><rect fill="none" height="230" rx="12.5" ry="12.5" style="stroke:#181818;stroke-width:0.5;" width="247" x="730" y="297"/><line style="stroke:#181818;stroke-width:0.5;" x1="730" x2="977" y1="318.4883" y2="318.4883"/><text fill="#000000" font-family="sans-serif" font-size="14" lengthAdjust="spacing" textLength="62" x="822.5" y="314.5352">SpyMode</text></g><g id="ListenMode.Wiretap"><rect fill="#F1F1F1" height="50" rx="12.5" ry="12.5" style="stroke:#181818;stroke-width:0.5;" width="109" x="325.5" y="42"/><line style="stroke:#181818;stroke-width:0.5;" x1="325.5" x2="434.5" y1="68.4883" y2="68.4883"/><text fill="#000000" font-family="sans-serif" font-size="14" lengthAdjust="spacing" textLength="89" x="335.5" y="60.5352">Wiretap state</text></g><g id="ListenMode.Connecting"><rect fill="#F1F1F1" height="50" rx="12.5" ry="12.5" style="stroke:#181818;stroke-width:0.5;" width="136" x="433" y="184"/><line style="stroke:#181818;stroke-width:0.5;" x1="433" x2="569" y1="210.4883" y2="210.4883"/><text fill="#000000" font-family="sans-serif" font-size="14" lengthAdjust="spacing" textLength="116" x="443" y="202.5352">Connecting state</text></g><g id="ListenMode.Connected"><rect fill="#F1F1F1" height="50" rx="12.5" ry="12.5" style="stroke:#181818;stroke-width:0.5;" width="131" x="434.5" y="317"/><line style="stroke:#181818;stroke-width:0.5;" x1="434.5" x2="565.5" y1="343.4883" y2="343.4883"/><text fill="#000000" font-family="sans-serif" font-size="14" lengthAdjust="spacing" textLength="111" x="444.5" y="335.5352">Connected state</text></g><g id="ListenMode.Preflight"><rect fill="#F1F1F1" height="50" rx="12.5" ry="12.5" style="stroke:#181818;stroke-width:0.5;" width="115" x="65.5" y="317"/><line style="stroke:#181818;stroke-width:0.5;" x1="65.5" x2="180.5" y1="343.4883" y2="343.4883"/><text fill="#000000" font-family="sans-serif" font-size="14" lengthAdjust="spacing" textLength="95" x="75.5" y="335.5352">Preflight state</text></g><ellipse cx="280" cy="67" fill="#222222" rx="10" ry="10" style="stroke:#222222;stroke-width:1.0;"/><ellipse cx="639" cy="342" fill="none" rx="11" ry="11" style="stroke:#222222;stroke-width:1.0;"/><ellipse cx="639" cy="342" fill="#222222" rx="6" ry="6" style="stroke:#222222;stroke-width:1.0;"/><g id="SpyMode.SpyConnected"><rect fill="#F1F1F1" height="50" rx="12.5" ry="12.5" style="stroke:#181818;stroke-width:0.5;" width="131" x="745.5" y="461"/><line style="stroke:#181818;stroke-width:0.5;" x1="745.5" x2="876.5" y1="487.4883" y2="487.4883"/><text fill="#000000" font-family="sans-serif" font-size="14" lengthAdjust="spacing" textLength="111" x="755.5" y="479.5352">Connected state</text></g><ellipse cx="836" cy="342" fill="#222222" rx="10" ry="10" style="stroke:#222222;stroke-width:1.0;"/><ellipse cx="923" cy="486" fill="none" rx="11" ry="11" style="stroke:#222222;stroke-width:1.0;"/><ellipse cx="923" cy="486" fill="#222222" rx="6" ry="6" style="stroke:#222222;stroke-width:1.0;"/><!--link *start*ListenMode to Wiretap--><g id="link_*start*ListenMode_Wiretap"><path d="M290.16,67 C301.85,67 307.55,67 319.25,67 " fill="none" id="*start*ListenMode-to-Wiretap" style="stroke:#181818;stroke-width:1.0;"/><polygon fill="#181818" points="325.25,67,316.25,63,320.25,67,316.25,71,325.25,67" style="stroke:#181818;stroke-width:1.0;"/></g><!--link Wiretap to Connecting--><g id="link_Wiretap_Connecting"><path d="M434.81,92.2 C448.08,100.13 461.23,110.05 471,122 C485.51,139.75 491.9604,159.1116 495.9104,177.6616 " fill="none" id="Wiretap-to-Connecting" style="stroke:#181818;stroke-width:1.0;"/><polygon fill="#181818" points="497.16,183.53,499.1979,173.8943,496.1187,178.6396,491.3733,175.5604,497.16,183.53" style="stroke:#181818;stroke-width:1.0;"/><text fill="#000000" font-family="sans-serif" font-size="13" lengthAdjust="spacing" textLength="99" x="488" y="143.0684">pty-stdin: hello</text></g><!--reverse link Wiretap to Connecting--><g id="link_Wiretap_Connecting"><path d="M379.5491,98.136 C380.2291,116.746 383.67,136.22 397,154 C406.22,166.29 419.04,176.02 432.55,183.65 " fill="none" id="Wiretap-backto-Connecting" style="stroke:#181818;stroke-width:1.0;"/><polygon fill="#181818" points="379.33,92.14,375.6613,101.2801,379.5126,97.1367,383.656,100.9879,379.33,92.14" style="stroke:#181818;stroke-width:1.0;"/><text fill="#000000" font-family="sans-serif" font-size="13" lengthAdjust="spacing" textLength="35" x="414.5" y="135.5684">failed</text><text fill="#000000" font-family="sans-serif" font-size="13" lengthAdjust="spacing" textLength="68" x="398" y="150.8789">handshake</text></g><!--link Wiretap to *end*ListenMode--><g id="link_Wiretap_*end*ListenMode"><path d="M434.88,75.3 C491.11,83.86 573.4,99.77 596,122 C655.67,180.69 646.0675,290.3046 641.3575,324.9846 " fill="none" id="Wiretap-to-*end*ListenMode" style="stroke:#181818;stroke-width:1.0;"/><polygon fill="#181818" points="640.55,330.93,645.7248,322.5502,641.2229,325.9755,637.7976,321.4736,640.55,330.93" style="stroke:#181818;stroke-width:1.0;"/><text fill="#000000" font-family="sans-serif" font-size="13" lengthAdjust="spacing" textLength="49" x="643" y="206.5684">process</text><text fill="#000000" font-family="sans-serif" font-size="13" lengthAdjust="spacing" textLength="24" x="655.5" y="221.8789">exit</text></g><!--link Connecting to Connected--><g id="link_Connecting_Connected"><path d="M483.43,234.35 C478.02,243.24 472.76,253.66 470,264 C465.16,282.16 470.0516,296.7499 478.9816,311.6899 " fill="none" id="Connecting-to-Connected" style="stroke:#181818;stroke-width:1.0;"/><polygon fill="#181818" points="482.06,316.84,480.8759,307.0626,479.4947,312.5482,474.0091,311.1671,482.06,316.84" style="stroke:#181818;stroke-width:1.0;"/><text fill="#000000" font-family="sans-serif" font-size="13" lengthAdjust="spacing" textLength="158" x="471" y="277.5684">spy-mode: hello (yamux)</text></g><!--link Wiretap to Preflight--><g id="link_Wiretap_Preflight"><path d="M342.81,92.44 C311.25,114.23 265.83,148.15 232,184 C192.03,226.35 158.6729,279.243 139.7329,311.573 " fill="none" id="Wiretap-to-Preflight" style="stroke:#181818;stroke-width:1.0;"/><polygon fill="#181818" points="136.7,316.75,144.7007,311.0064,139.2274,312.4358,137.798,306.9625,136.7,316.75" style="stroke:#181818;stroke-width:1.0;"/><text fill="#000000" font-family="sans-serif" font-size="13" lengthAdjust="spacing" textLength="121" x="233" y="214.0684">stdin[:3] = ^G^G^G</text></g><!--reverse link Wiretap to Preflight--><g id="link_Wiretap_Preflight"><path d="M319.4438,88.8196 C313.6738,90.5896 313.6,90.52 308,92 C204.36,119.45 129.69,86.54 85,184 C64.66,228.36 89.53,284.95 107.54,316.65 " fill="none" id="Wiretap-backto-Preflight" style="stroke:#181818;stroke-width:1.0;"/><polygon fill="#181818" points="325.18,87.06,315.4027,85.8753,320.3999,88.5264,317.7488,93.5236,325.18,87.06" style="stroke:#181818;stroke-width:1.0;"/><text fill="#000000" font-family="sans-serif" font-size="13" lengthAdjust="spacing" textLength="36" x="86" y="214.0684">finish</text></g><!--reverse link Wiretap to Connected--><g id="link_Wiretap_Connected"><path d="M371.4995,98.2745 C363.1795,131.9145 354.47,187.74 376,234 C392.62,269.7 427.55,298.09 456.12,316.63 " fill="none" id="Wiretap-backto-Connected" style="stroke:#181818;stroke-width:1.0;"/><polygon fill="#181818" points="372.94,92.45,366.8962,100.2264,371.7395,97.3038,374.6622,102.1471,372.94,92.45" style="stroke:#181818;stroke-width:1.0;"/><text fill="#000000" font-family="sans-serif" font-size="13" lengthAdjust="spacing" textLength="37" x="377" y="206.5684">fail or</text><text fill="#000000" font-family="sans-serif" font-size="13" lengthAdjust="spacing" textLength="17" x="387" y="221.8789">^C</text></g><!--link *start*SpyMode to SpyConnected--><g id="link_*start*SpyMode_SpyConnected"><path d="M827.64,347.9 C814.18,356.33 788.17,375.04 778,399 C769.25,419.61 776.6251,438.3988 788.1051,455.7188 " fill="none" id="*start*SpyMode-to-SpyConnected" style="stroke:#181818;stroke-width:1.0;"/><polygon fill="#181818" points="791.42,460.72,789.7818,451.0083,788.6576,456.5524,783.1136,455.4282,791.42,460.72" style="stroke:#181818;stroke-width:1.0;"/><text fill="#000000" font-family="sans-serif" font-size="13" lengthAdjust="spacing" textLength="67" x="779.5" y="412.5684">successful</text><text fill="#000000" font-family="sans-serif" font-size="13" lengthAdjust="spacing" textLength="68" x="779" y="427.8789">handshake</text></g><!--link *start*SpyMode to *end*SpyMode--><g id="link_*start*SpyMode_*end*SpyMode"><path d="M840.93,351.04 C856.02,375.68 898.4464,444.9233 914.3264,470.8533 " fill="none" id="*start*SpyMode-to-*end*SpyMode" style="stroke:#181818;stroke-width:1.0;"/><polygon fill="#181818" points="917.46,475.97,916.1708,466.2059,914.8487,471.7061,909.3485,470.384,917.46,475.97" style="stroke:#181818;stroke-width:1.0;"/><text fill="#000000" font-family="sans-serif" font-size="13" lengthAdjust="spacing" textLength="68" x="890" y="412.5684">handshake</text><text fill="#000000" font-family="sans-serif" font-size="13" lengthAdjust="spacing" textLength="40" x="904" y="427.8789">failure</text></g><!--link Connected to SpyConnected--><g id="link_Connected_SpyConnected"><path d="M537.03,367.43 C566.93,386.45 610.53,412.61 651,431 C681.16,444.71 710.149,455.0217 739.509,464.3017 " fill="none" id="Connected-to-SpyConnected" style="stroke:#181818;stroke-width:1.0;stroke-dasharray:1.0,3.0;"/><polygon fill="#181818" points="745.23,466.11,737.854,459.5836,740.4625,464.6031,735.4429,467.2116,745.23,466.11" style="stroke:#181818;stroke-width:1.0;"/></g><!--link SpyConnected to Connected--><g id="link_SpyConnected_Connected"><path d="M771.95,460.66 C739.55,441.43 691.73,415.22 647,399 C631.18,393.26 626.01,396.17 610,391 C590.07,384.57 574.3129,378.2491 555.8629,369.9591 " fill="none" id="SpyConnected-to-Connected" style="stroke:#181818;stroke-width:1.0;stroke-dasharray:1.0,3.0;"/><polygon fill="#181818" points="550.39,367.5,556.96,374.8373,554.9508,369.5493,560.2388,367.54,550.39,367.5" style="stroke:#181818;stroke-width:1.0;"/></g><!--SRC=[VP6nJiGm38RtF8Lr4o1bOgk0vGOMa90O6DgU53NkDQBdL4qgNOLuTvoxqYHt26L9x2-_VzlEAu_mOfn7UhKQuKi0k5Dmys56z6euFpUW72oHY6mj4JRUq3wXOl0AH7tDeOxOsuXjR_QTJx0r9fWhxsgGJucHNvEIeucR0WO_I-UreG8wx7kRiGm79QP6sw1p5U7HU4OIYKIHRHVWXbaUU4IB7jpCwZ0TRozrOmly9TGlY_iQ7c7t74v2FyYCRGqPrsLvcNVKAjEZhgXJf5sdFl5l-6Gsi637YdPRyIt4URplmxpk-D_DC9WkPnaxDvScGdzJ4wRNJdtkAduuJtdDLHICJIC6Kr59bjfwljGN9KHMBwKYyWC0]--></g></svg>